<svg width="69" height="41" viewBox="0 0 69 41" fill="none" xmlns="http://www.w3.org/2000/svg">
<path d="M68.7413 36.5536L63.3929 31.7369C63.0018 31.3844 62.289 31.3284 61.8022 31.6121C61.3155 31.8958 61.2382 32.411 61.6299 32.764L64.6813 35.5117C57.8445 34.2494 52.0893 33.4383 47.464 33.0909C53.6681 25.1711 49.8845 19.9817 45.1524 16.8993C41.2893 14.3827 36.0985 13.013 30.7045 13.006C30.6312 12.4682 30.5259 11.9211 30.3885 11.3659C29.2597 6.80367 25.0515 2.97974 19.1317 1.13697C13.1986 -0.709802 6.45289 -0.287973 1.08828 2.26513C0.674056 2.46192 0.450929 2.58377 0.450929 2.58377C-0.0472393 2.85575 -0.148125 3.3685 0.225962 3.7298C0.600048 4.09111 1.30698 4.16523 1.80699 3.89512C1.82172 3.88712 2.00435 3.78953 2.3302 3.63435C7.05857 1.38388 13.0053 1.01298 18.2385 2.64217C23.4576 4.26682 27.1672 7.63613 28.1617 11.655C28.2814 12.1387 28.3745 12.6146 28.4408 13.0831C27.7563 13.1308 27.0711 13.2004 26.3874 13.2927C16.7513 14.5931 14.2406 17.8099 13.8312 20.2795C13.4917 22.3287 14.8183 24.3221 17.2101 25.3572C18.9097 26.0932 20.8843 26.2281 22.9197 25.7481C24.4646 25.3839 25.8225 24.6709 26.8469 23.6854C29.5439 21.0896 30.876 18.0584 30.8289 14.6443C35.6243 14.6707 40.2216 15.8909 43.6399 18.1173C49.5723 21.9821 50.0104 26.9592 44.9639 32.9432C40.0014 32.7347 36.5934 33.1699 34.7855 34.2434C33.6835 34.8977 33.1456 35.776 33.2295 36.7845C33.3356 38.0612 34.5098 39.1843 36.1508 39.5789C36.6052 39.6877 37.0566 39.7357 37.5021 39.7357C40.7702 39.7357 43.6428 37.1396 43.7806 37.0138C44.6694 36.1957 45.4603 35.4017 46.1591 34.6327C50.3993 34.9 56.3331 35.6437 64.6168 37.1881L59.5239 38.7795C58.9502 38.9587 58.6858 39.4402 58.9333 39.8557C59.1174 40.1655 59.5342 40.3506 59.9723 40.3506C60.1218 40.3506 60.2735 40.3292 60.4193 40.2834L68.3075 37.819C68.6323 37.7177 68.8723 37.5124 68.9578 37.2644C69.0424 37.0159 68.9629 36.753 68.7413 36.5536ZM25.0394 22.7004C24.3067 23.4054 23.3056 23.9344 22.2198 24.1899C20.8037 24.5248 19.5087 24.4432 18.3706 23.9515C16.7694 23.2582 15.8478 21.861 16.0771 20.4747C16.5348 17.715 20.2433 15.7882 26.802 14.9032C27.3889 14.824 27.9772 14.7632 28.5645 14.7203C28.5859 17.747 27.4065 20.4217 25.0394 22.7004ZM42.0051 35.9984C41.2172 36.7167 38.7576 38.4814 36.8636 38.0238C36.1037 37.8414 35.5378 37.2911 35.4873 36.6863C35.4475 36.2043 35.6802 35.8304 36.22 35.5105C37.0426 35.0214 38.8143 34.5111 42.6185 34.5111C42.9101 34.5111 43.2135 34.5137 43.5294 34.5201C43.0552 35.007 42.5478 35.4998 42.0051 35.9984Z" fill="url(#paint0_linear_45_11208)"/>
<defs>
<linearGradient id="paint0_linear_45_11208" x1="68.6199" y1="37.1338" x2="16.2165" y2="-14.9506" gradientUnits="userSpaceOnUse">
<stop stop-color="white"/>
<stop offset="1" stop-color="white" stop-opacity="0"/>
</linearGradient>
</defs>
</svg>
