<svg width="95" height="46" viewBox="0 0 95 46" fill="none" xmlns="http://www.w3.org/2000/svg">
<path d="M93.7095 39.305C87.1843 35.1199 80.441 31.1004 73.9158 26.9155C72.6896 26.1246 70.6384 27.0865 71.2975 28.2421C72.3099 30.5205 73.4093 32.6665 74.4217 34.9448C71.5772 33.7934 70.1728 31.9451 68.7234 29.6677C68.0212 28.7437 67.0129 27.787 65.44 27.8561C62.9927 27.9266 61.2518 30.2429 59.9449 31.5671C56.6339 34.9438 53.8922 38.617 50.0121 41.6973C45.434 45.1754 43.9825 42.2369 43.709 38.6684C43.3475 34.9018 43.9031 30.9022 44.8967 27.2323C46.7121 20.8181 49.0947 14.0393 47.5005 7.49908C46.615 3.8656 41.9239 -0.785445 36.2472 0.877146C29.2609 2.87245 22.8988 8.89837 20.0741 14.0256C18.3342 16.6724 10.0017 35.3255 4.77505 27.1725C0.953875 21.198 4.37708 11.8398 6.14949 5.65699C6.36541 4.83044 4.74719 4.46985 4.35624 5.23062C1.35981 11.2832 -0.0164476 18.3576 0.834466 24.8662C1.36997 28.3681 5.49614 34.0446 11.2124 31.1593C17.8887 27.8096 19.963 20.3374 22.8307 14.9788C24.5244 11.572 28.2294 8.4259 31.4555 5.84249C38.3435 0.344413 44.3437 4.33218 44.8005 10.6101C45.3058 18.3089 41.177 25.7516 40.3269 33.3539C40.0732 36.0642 38.8782 45.1869 44.868 45.8702C51.7759 46.6509 57.1274 39.0074 60.2194 35.4661C60.0014 35.6317 65.0522 29.6082 65.8414 30.4C66.6306 31.1917 67.1148 32.2812 67.8172 33.2052C69.1773 34.9542 70.8859 36.174 73.1172 36.9298C70.584 37.4632 68.1388 38.1946 65.7817 39.1241C64.5596 39.6551 65.0889 41.1742 66.357 41.4033C75.2332 42.6761 83.97 41.3385 92.886 41.3885C94.2409 41.4853 94.8918 39.997 93.7095 39.305ZM77.3156 37.8476C78.1016 37.6479 78.1436 37.0861 77.8365 36.7231C78.1415 36.4252 78.2715 36.0614 78.0954 35.6652C77.5232 34.3774 76.9069 32.9906 76.3347 31.7028C80.3635 34.2071 84.3483 36.6124 88.377 39.1167C82.9145 39.2917 77.4529 39.7973 72.0764 39.5093C73.7353 38.9776 75.5255 38.4126 77.3156 37.8476Z" fill="url(#paint0_linear_45_11224)"/>
<defs>
<linearGradient id="paint0_linear_45_11224" x1="96.7528" y1="40.7011" x2="12.23" y2="-18.1193" gradientUnits="userSpaceOnUse">
<stop stop-color="white" stop-opacity="0.9"/>
<stop offset="0.9999" stop-color="white" stop-opacity="0"/>
<stop offset="1" stop-color="white" stop-opacity="0"/>
</linearGradient>
</defs>
</svg>
