<svg width="227" height="44" viewBox="0 0 227 44" fill="none" xmlns="http://www.w3.org/2000/svg">
<path fill-rule="evenodd" clip-rule="evenodd" d="M1.31911 34.5118L1.17396 34.4736C0.974961 35.051 0.806398 35.6356 0.675293 36.2225C0.853221 35.6403 1.06861 35.0701 1.31911 34.5118Z" fill="#FF0000"/>
<path fill-rule="evenodd" clip-rule="evenodd" d="M1.55542 33.4887L1.79656 33.5507C2.26479 32.6847 2.81965 31.8567 3.44239 31.0861L2.99757 30.7568C2.4357 31.6349 1.95108 32.5487 1.55542 33.4887Z" fill="#FF0000"/>
<path fill-rule="evenodd" clip-rule="evenodd" d="M3.62524 29.8376L4.16839 30.2432C5.28747 29.0288 6.58447 27.9766 7.98214 27.1463L7.51391 25.8174C6.02727 26.9769 4.71154 28.3417 3.62524 29.8376Z" fill="#FF0000"/>
<path fill-rule="evenodd" clip-rule="evenodd" d="M8.41992 25.1521L8.93966 26.6194C10.733 25.7128 12.6598 25.1688 14.5795 25.0996L15.3544 22.2222C13.7297 22.5109 12.0698 23.0763 10.4497 23.9257C9.74736 24.2908 9.07076 24.7011 8.41992 25.1521Z" fill="#FFC700"/>
<path fill-rule="evenodd" clip-rule="evenodd" d="M16.3588 22.079L15.5464 25.1043C17.8711 25.2188 19.8166 26.0586 21.2307 27.4115L24.5996 24.2501C24.4615 24.138 24.321 24.0282 24.1735 23.9233C22.0384 22.382 19.2829 21.7664 16.3588 22.079Z" fill="#FFC700"/>
<path fill-rule="evenodd" clip-rule="evenodd" d="M21.8159 28.0393C23.5133 30.0673 24.1922 32.9733 23.4711 36.2229H27.4792C28.5304 31.6992 27.5799 27.6551 25.1849 24.8779L21.8159 28.0393Z" fill="#27AE60"/>
<path fill-rule="evenodd" clip-rule="evenodd" d="M21.0177 28.2847L16.6444 32.6795L13.3551 35.9816C13.423 36.1963 13.43 36.4493 13.3598 36.7165C13.1491 37.5134 12.3461 38.16 11.5641 38.16C10.7822 38.16 10.3163 37.5134 10.527 36.7165C10.7377 35.9196 11.5407 35.273 12.3227 35.273C12.4912 35.273 12.6457 35.304 12.7839 35.3589L16.3167 32.3216L21.0177 28.2847Z" fill="#212034"/>
<path d="M11.6265 9.64062V14.2406L15.2247 11.9406L18.2233 10.7906H33.216V4.46562L32.0166 1.59062L29.018 1.01562L14.0253 6.76562L11.6265 9.64062Z" fill="#FF0000"/>
<path d="M11.3022 19.649V17.5071C11.3022 13.8952 14.4163 10.9463 18.2305 10.9463H39.384C43.1982 10.9463 46.3123 13.8952 46.3123 17.5071V20.0198M46.3123 27.1739V29.2503C46.3123 32.8623 43.1982 35.8112 39.384 35.8112H31.4006" stroke="#212034" stroke-linecap="round" stroke-linejoin="round"/>
<path d="M11.3022 19.6487V11.4259C11.3022 9.28478 12.6052 7.37745 14.5864 6.62174L28.7584 1.22384C30.9717 0.378173 33.3456 2.03358 33.3456 4.42665V10.3243" stroke="#212034" stroke-linecap="round" stroke-linejoin="round"/>
<path d="M47.6091 21.7068V25.1737C47.6091 26.0993 46.8888 26.8566 45.9721 26.8902H42.7638C40.9959 26.8902 39.3754 25.5607 39.2281 23.7432C39.1299 22.6829 39.5227 21.69 40.2102 21C40.8159 20.3604 41.6507 19.9902 42.5674 19.9902H45.9721C46.8888 20.0239 47.6091 20.7811 47.6091 21.7068Z" fill="#CCCCCC" stroke="#212034" stroke-linecap="round" stroke-linejoin="round"/>
<path d="M19.0823 18.4053H32.0489" stroke="#212034" stroke-width="2" stroke-linecap="round" stroke-linejoin="round"/>
<path d="M72.4079 21H68.4819L68.0659 9.092L62.4239 21H58.4979L57.3539 3.658H61.4099L61.6699 16.19L67.7279 3.658H70.6139L71.1339 16.19L76.9319 3.658H81.1699L72.4079 21ZM84.7821 8.13C85.6141 8.13 86.3854 8.30333 87.0961 8.65C87.8068 8.99667 88.3701 9.482 88.7861 10.106L89.1241 8.442H92.4521L89.6701 21H86.3421L86.7061 19.44C85.6488 20.688 84.3921 21.312 82.9361 21.312C81.4801 21.312 80.3188 20.8527 79.4521 19.934C78.5854 19.0153 78.1521 17.7413 78.1521 16.112C78.1521 14.7947 78.3948 13.5467 78.8801 12.368C79.3828 11.172 80.1454 10.1667 81.1681 9.352C82.2081 8.53733 83.4128 8.13 84.7821 8.13ZM85.3021 11.068C84.2448 11.068 83.3608 11.5013 82.6501 12.368C81.9568 13.2347 81.6101 14.2573 81.6101 15.436C81.6101 16.32 81.8701 17.0307 82.3901 17.568C82.9101 18.1053 83.5774 18.374 84.3921 18.374C85.5361 18.374 86.4981 17.88 87.2781 16.892L88.2401 12.524C87.5988 11.5533 86.6194 11.068 85.3021 11.068ZM95.9865 21H92.6845L96.5065 3.658H99.8085L95.9865 21ZM102.303 21H99.0006L102.823 3.658H106.125L102.303 21ZM112.311 21.312C110.317 21.312 108.731 20.8093 107.553 19.804C106.391 18.7987 105.811 17.4207 105.811 15.67C105.811 13.59 106.504 11.8133 107.891 10.34C109.277 8.86667 111.002 8.13 113.065 8.13C114.711 8.13 116.063 8.64133 117.121 9.664C118.178 10.6693 118.707 12.03 118.707 13.746C118.707 14.5433 118.62 15.2193 118.447 15.774H109.113V16.086C109.113 16.71 109.416 17.2993 110.023 17.854C110.647 18.4087 111.487 18.686 112.545 18.686C113.845 18.686 114.902 18.374 115.717 17.75L116.757 20.012C115.491 20.8787 114.009 21.312 112.311 21.312ZM109.451 13.538H115.743V13.278C115.743 12.5847 115.491 11.9953 114.989 11.51C114.503 11.0073 113.793 10.756 112.857 10.756C112.007 10.756 111.262 11.042 110.621 11.614C109.997 12.1687 109.607 12.81 109.451 13.538ZM124.472 21.312C123.311 21.312 122.392 21.0867 121.716 20.636C121.057 20.168 120.728 19.4833 120.728 18.582C120.728 18.2873 120.763 18.0013 120.832 17.724L122.236 11.302H120.156L120.806 8.442H122.886L123.64 5.01H126.968L126.214 8.442H128.762L128.086 11.302H125.538L124.342 16.762C124.307 16.97 124.29 17.1433 124.29 17.282C124.29 18.01 124.697 18.374 125.512 18.374C125.911 18.374 126.214 18.2873 126.422 18.114L126.552 20.766C126.015 21.13 125.321 21.312 124.472 21.312ZM143.423 21L152.185 3.658H150.469L142.929 18.92L142.045 3.658H140.693L133.049 18.92L132.269 3.658H130.631L131.775 21H133.439L140.875 6.102L141.759 21H143.423ZM156.739 8.13C152.761 8.13 150.135 11.926 150.135 16.164C150.135 19.388 152.163 21.312 155.049 21.312C156.843 21.312 158.325 20.428 159.365 19.102L158.923 21H160.301L163.083 8.442H161.705L161.263 10.574C160.405 9.144 158.793 8.13 156.739 8.13ZM156.843 9.352C158.871 9.352 160.379 10.392 161.003 11.64L159.677 17.672C158.819 18.972 157.181 20.09 155.413 20.09C153.125 20.09 151.617 18.478 151.617 15.904C151.617 12.602 153.697 9.352 156.843 9.352ZM174.79 21L170.474 14.11L177.598 8.442H175.7L166.808 15.514L169.434 3.658H168.082L164.26 21H165.612L166.444 17.23L169.356 14.942L173.126 21H174.79ZM183.551 21.312C185.189 21.312 186.801 20.636 187.919 19.778L187.399 18.79C186.307 19.7 184.877 20.142 183.603 20.142C180.535 20.142 179.001 18.192 179.001 15.878C179.001 15.644 179.027 15.306 179.053 15.15H189.661C189.739 14.838 189.869 14.11 189.869 13.564C189.869 10.496 187.893 8.13 184.539 8.13C180.639 8.13 177.571 11.588 177.571 15.774C177.571 19.05 179.781 21.312 183.551 21.312ZM188.465 14.084H179.183C179.625 11.51 181.861 9.3 184.383 9.3C187.087 9.3 188.569 11.068 188.569 13.512C188.569 13.668 188.569 13.954 188.543 14.084H188.465ZM194.325 8.442L192.427 17.178C192.349 17.464 192.271 18.01 192.271 18.244C192.271 20.298 193.805 21.312 195.937 21.312C197.705 21.312 199.343 20.194 200.461 19.102L200.045 21H201.397L204.179 8.442H202.827L200.721 17.88C199.655 19.024 198.043 20.09 196.457 20.09C194.871 20.09 193.675 19.44 193.675 17.88C193.675 17.568 193.753 17.178 193.805 16.944L195.703 8.442H194.325ZM211.694 21.312C215.646 21.312 218.272 17.49 218.272 13.278C218.272 10.054 216.244 8.13 213.384 8.13C211.59 8.13 210.082 9.014 209.068 10.34L209.484 8.442H208.132L204.284 25.784H205.636L207.17 18.868C208.028 20.298 209.614 21.312 211.694 21.312ZM211.564 20.09C209.536 20.09 208.028 19.05 207.404 17.802L208.73 11.77C209.614 10.47 211.226 9.352 212.994 9.352C215.282 9.352 216.79 10.964 216.79 13.538C216.79 16.84 214.736 20.09 211.564 20.09Z" fill="#212034"/>
<path d="M72.4079 21H68.4819L68.0659 9.092L62.4239 21H58.4979L57.3539 3.658H61.4099L61.6699 16.19L67.7279 3.658H70.6139L71.1339 16.19L76.9319 3.658H81.1699L72.4079 21ZM84.7821 8.13C85.6141 8.13 86.3854 8.30333 87.0961 8.65C87.8068 8.99667 88.3701 9.482 88.7861 10.106L89.1241 8.442H92.4521L89.6701 21H86.3421L86.7061 19.44C85.6488 20.688 84.3921 21.312 82.9361 21.312C81.4801 21.312 80.3188 20.8527 79.4521 19.934C78.5854 19.0153 78.1521 17.7413 78.1521 16.112C78.1521 14.7947 78.3948 13.5467 78.8801 12.368C79.3828 11.172 80.1454 10.1667 81.1681 9.352C82.2081 8.53733 83.4128 8.13 84.7821 8.13ZM85.3021 11.068C84.2448 11.068 83.3608 11.5013 82.6501 12.368C81.9568 13.2347 81.6101 14.2573 81.6101 15.436C81.6101 16.32 81.8701 17.0307 82.3901 17.568C82.9101 18.1053 83.5774 18.374 84.3921 18.374C85.5361 18.374 86.4981 17.88 87.2781 16.892L88.2401 12.524C87.5988 11.5533 86.6194 11.068 85.3021 11.068ZM95.9865 21H92.6845L96.5065 3.658H99.8085L95.9865 21ZM102.303 21H99.0006L102.823 3.658H106.125L102.303 21ZM112.311 21.312C110.317 21.312 108.731 20.8093 107.553 19.804C106.391 18.7987 105.811 17.4207 105.811 15.67C105.811 13.59 106.504 11.8133 107.891 10.34C109.277 8.86667 111.002 8.13 113.065 8.13C114.711 8.13 116.063 8.64133 117.121 9.664C118.178 10.6693 118.707 12.03 118.707 13.746C118.707 14.5433 118.62 15.2193 118.447 15.774H109.113V16.086C109.113 16.71 109.416 17.2993 110.023 17.854C110.647 18.4087 111.487 18.686 112.545 18.686C113.845 18.686 114.902 18.374 115.717 17.75L116.757 20.012C115.491 20.8787 114.009 21.312 112.311 21.312ZM109.451 13.538H115.743V13.278C115.743 12.5847 115.491 11.9953 114.989 11.51C114.503 11.0073 113.793 10.756 112.857 10.756C112.007 10.756 111.262 11.042 110.621 11.614C109.997 12.1687 109.607 12.81 109.451 13.538ZM124.472 21.312C123.311 21.312 122.392 21.0867 121.716 20.636C121.057 20.168 120.728 19.4833 120.728 18.582C120.728 18.2873 120.763 18.0013 120.832 17.724L122.236 11.302H120.156L120.806 8.442H122.886L123.64 5.01H126.968L126.214 8.442H128.762L128.086 11.302H125.538L124.342 16.762C124.307 16.97 124.29 17.1433 124.29 17.282C124.29 18.01 124.697 18.374 125.512 18.374C125.911 18.374 126.214 18.2873 126.422 18.114L126.552 20.766C126.015 21.13 125.321 21.312 124.472 21.312Z" fill="#FF0000"/>
<path d="M143.423 21L152.185 3.658H150.469L142.929 18.92L142.045 3.658H140.693L133.049 18.92L132.269 3.658H130.631L131.775 21H133.439L140.875 6.102L141.759 21H143.423ZM156.739 8.13C152.761 8.13 150.135 11.926 150.135 16.164C150.135 19.388 152.163 21.312 155.049 21.312C156.843 21.312 158.325 20.428 159.365 19.102L158.923 21H160.301L163.083 8.442H161.705L161.263 10.574C160.405 9.144 158.793 8.13 156.739 8.13ZM156.843 9.352C158.871 9.352 160.379 10.392 161.003 11.64L159.677 17.672C158.819 18.972 157.181 20.09 155.413 20.09C153.125 20.09 151.617 18.478 151.617 15.904C151.617 12.602 153.697 9.352 156.843 9.352ZM174.79 21L170.474 14.11L177.598 8.442H175.7L166.808 15.514L169.434 3.658H168.082L164.26 21H165.612L166.444 17.23L169.356 14.942L173.126 21H174.79ZM183.551 21.312C185.189 21.312 186.801 20.636 187.919 19.778L187.399 18.79C186.307 19.7 184.877 20.142 183.603 20.142C180.535 20.142 179.001 18.192 179.001 15.878C179.001 15.644 179.027 15.306 179.053 15.15H189.661C189.739 14.838 189.869 14.11 189.869 13.564C189.869 10.496 187.893 8.13 184.539 8.13C180.639 8.13 177.571 11.588 177.571 15.774C177.571 19.05 179.781 21.312 183.551 21.312ZM188.465 14.084H179.183C179.625 11.51 181.861 9.3 184.383 9.3C187.087 9.3 188.569 11.068 188.569 13.512C188.569 13.668 188.569 13.954 188.543 14.084H188.465ZM194.325 8.442L192.427 17.178C192.349 17.464 192.271 18.01 192.271 18.244C192.271 20.298 193.805 21.312 195.937 21.312C197.705 21.312 199.343 20.194 200.461 19.102L200.045 21H201.397L204.179 8.442H202.827L200.721 17.88C199.655 19.024 198.043 20.09 196.457 20.09C194.871 20.09 193.675 19.44 193.675 17.88C193.675 17.568 193.753 17.178 193.805 16.944L195.703 8.442H194.325ZM211.694 21.312C215.646 21.312 218.272 17.49 218.272 13.278C218.272 10.054 216.244 8.13 213.384 8.13C211.59 8.13 210.082 9.014 209.068 10.34L209.484 8.442H208.132L204.284 25.784H205.636L207.17 18.868C208.028 20.298 209.614 21.312 211.694 21.312ZM211.564 20.09C209.536 20.09 208.028 19.05 207.404 17.802L208.73 11.77C209.614 10.47 211.226 9.352 212.994 9.352C215.282 9.352 216.79 10.964 216.79 13.538C216.79 16.84 214.736 20.09 211.564 20.09Z" fill="#212034"/>
<path d="M61.8329 35.816L63.0569 31.328H63.8649L62.2489 37H61.4409L59.9609 32.4L58.4969 37H57.7129L56.0729 31.328H56.8809L58.1289 35.768L59.5529 31.328H60.3769L61.8329 35.816ZM69.1528 37L68.5368 35.416H66.0248L65.4248 37H64.5848L66.8408 31.328H67.7448L70.0008 37H69.1528ZM67.2728 32.144L66.3048 34.688H68.2568L67.2728 32.144ZM75.1949 37L73.2749 34.424L72.4669 35.288V37H71.6829V31.328H72.4669V34.248L75.1229 31.328H76.1549L73.7949 33.856L76.1869 37H75.1949ZM81.3546 37H77.9066V31.328H81.3546V32.056H78.6906V33.8H81.1066V34.536H78.6906V36.272H81.3546V37ZM86.8591 36.576C86.4804 36.9387 85.9924 37.12 85.3951 37.12C84.7977 37.12 84.3071 36.9387 83.9231 36.576C83.5444 36.2133 83.3551 35.7093 83.3551 35.064V31.328H84.1311V35.04C84.1311 35.472 84.2404 35.8053 84.4591 36.04C84.6831 36.2747 84.9951 36.392 85.3951 36.392C85.7951 36.392 86.1044 36.2747 86.3231 36.04C86.5417 35.8053 86.6511 35.472 86.6511 35.04V31.328H87.4351V35.064C87.4351 35.7093 87.2431 36.2133 86.8591 36.576ZM90.4584 33.976H91.5944C91.9304 33.976 92.1971 33.8907 92.3944 33.72C92.5918 33.544 92.6904 33.3093 92.6904 33.016C92.6904 32.7173 92.5918 32.48 92.3944 32.304C92.1971 32.1227 91.9304 32.032 91.5944 32.032H90.4584V33.976ZM91.7384 34.68H90.4584V37H89.6744V31.328H91.7384C92.2558 31.328 92.6771 31.488 93.0024 31.808C93.3278 32.128 93.4904 32.528 93.4904 33.008C93.4904 33.4933 93.3278 33.8933 93.0024 34.208C92.6771 34.5227 92.2558 34.68 91.7384 34.68ZM96.3199 31.328L96.1199 35.376H95.5839L95.3759 31.328H96.3199ZM95.4799 36.888C95.3785 36.7867 95.3279 36.664 95.3279 36.52C95.3279 36.376 95.3785 36.2533 95.4799 36.152C95.5812 36.0453 95.7039 35.992 95.8479 35.992C95.9919 35.992 96.1145 36.0453 96.2159 36.152C96.3225 36.2533 96.3759 36.376 96.3759 36.52C96.3759 36.664 96.3225 36.7867 96.2159 36.888C96.1145 36.9893 95.9919 37.04 95.8479 37.04C95.7039 37.04 95.5812 36.9893 95.4799 36.888ZM106.732 35.816L107.956 31.328H108.764L107.148 37H106.34L104.86 32.4L103.396 37H102.612L100.972 31.328H101.78L103.028 35.768L104.452 31.328H105.276L106.732 35.816ZM114.948 37H114.164V34.48H111.268V37H110.484V31.328H111.268V33.752H114.164V31.328H114.948V37ZM121.198 37L120.582 35.416H118.07L117.47 37H116.63L118.886 31.328H119.79L122.046 37H121.198ZM119.318 32.144L118.35 34.688H120.302L119.318 32.144ZM127.14 32.056H125.244V37H124.46V32.056H122.564V31.328H127.14V32.056ZM128.661 31.752C128.661 31.6187 128.712 31.504 128.813 31.408C128.92 31.3067 129.05 31.256 129.205 31.256C129.376 31.256 129.52 31.3173 129.637 31.44C129.754 31.5627 129.813 31.736 129.813 31.96C129.813 32.408 129.698 32.7547 129.469 33C129.245 33.2453 128.992 33.384 128.709 33.416V33.032C128.885 32.9947 129.029 32.8987 129.141 32.744C129.258 32.584 129.32 32.4107 129.325 32.224C129.288 32.2507 129.234 32.264 129.165 32.264C129.021 32.264 128.901 32.2187 128.805 32.128C128.709 32.032 128.661 31.9067 128.661 31.752ZM135.346 32.616L134.642 32.864C134.605 32.6187 134.485 32.3973 134.282 32.2C134.079 31.9973 133.799 31.896 133.442 31.896C133.127 31.896 132.866 31.9867 132.658 32.168C132.45 32.3493 132.346 32.5733 132.346 32.84C132.346 33.048 132.407 33.224 132.53 33.368C132.658 33.512 132.839 33.6107 133.074 33.664L133.922 33.848C134.391 33.9493 134.754 34.1413 135.01 34.424C135.266 34.7013 135.394 35.04 135.394 35.44C135.394 35.8987 135.213 36.2933 134.85 36.624C134.487 36.9547 134.015 37.12 133.434 37.12C132.799 37.12 132.301 36.9547 131.938 36.624C131.581 36.288 131.373 35.8907 131.314 35.432L132.066 35.192C132.098 35.5333 132.231 35.8213 132.466 36.056C132.701 36.2907 133.021 36.408 133.426 36.408C133.799 36.408 134.087 36.3227 134.29 36.152C134.493 35.9813 134.594 35.7653 134.594 35.504C134.594 35.2907 134.522 35.1067 134.378 34.952C134.234 34.792 134.023 34.6827 133.746 34.624L132.938 34.448C132.517 34.3573 132.181 34.1787 131.93 33.912C131.679 33.6453 131.554 33.3067 131.554 32.896C131.554 32.448 131.735 32.056 132.098 31.72C132.466 31.3787 132.909 31.208 133.426 31.208C134.007 31.208 134.453 31.3493 134.762 31.632C135.071 31.9147 135.266 32.2427 135.346 32.616ZM141.032 37H140.232V31.328H141.032V37ZM148.018 37H147.202L144.138 32.376V37H143.354V31.328H144.402L147.234 35.68V31.328H148.018V37ZM154.576 34.576L152.576 31.328H153.52L154.992 33.856L156.464 31.328H157.36L155.36 34.576V37H154.576V34.576ZM159.722 32.52C159.322 32.9093 159.122 33.456 159.122 34.16C159.122 34.864 159.322 35.4133 159.722 35.808C160.122 36.2027 160.605 36.4 161.17 36.4C161.735 36.4 162.218 36.2027 162.618 35.808C163.018 35.4133 163.218 34.864 163.218 34.16C163.218 33.456 163.018 32.9093 162.618 32.52C162.218 32.1253 161.735 31.928 161.17 31.928C160.605 31.928 160.122 32.1253 159.722 32.52ZM158.322 34.16C158.322 33.7013 158.402 33.2827 158.562 32.904C158.727 32.5253 158.943 32.216 159.21 31.976C159.482 31.7307 159.786 31.5413 160.122 31.408C160.458 31.2747 160.807 31.208 161.17 31.208C161.533 31.208 161.882 31.2747 162.218 31.408C162.554 31.5413 162.855 31.7307 163.122 31.976C163.394 32.216 163.61 32.5253 163.77 32.904C163.935 33.2827 164.018 33.7013 164.018 34.16C164.018 34.768 163.877 35.3013 163.594 35.76C163.317 36.2187 162.965 36.56 162.538 36.784C162.111 37.008 161.655 37.12 161.17 37.12C160.685 37.12 160.229 37.008 159.802 36.784C159.375 36.56 159.021 36.2187 158.738 35.76C158.461 35.3013 158.322 34.768 158.322 34.16ZM169.4 36.576C169.021 36.9387 168.533 37.12 167.936 37.12C167.339 37.12 166.848 36.9387 166.464 36.576C166.085 36.2133 165.896 35.7093 165.896 35.064V31.328H166.672V35.04C166.672 35.472 166.781 35.8053 167 36.04C167.224 36.2747 167.536 36.392 167.936 36.392C168.336 36.392 168.645 36.2747 168.864 36.04C169.083 35.8053 169.192 35.472 169.192 35.04V31.328H169.976V35.064C169.976 35.7093 169.784 36.2133 169.4 36.576ZM175.151 37L173.855 34.68H173.007V37H172.215V31.328H174.351C174.874 31.328 175.293 31.4907 175.607 31.816C175.927 32.136 176.087 32.536 176.087 33.016C176.087 33.4267 175.965 33.7787 175.719 34.072C175.474 34.36 175.138 34.544 174.711 34.624L176.063 37H175.151ZM173.007 33.976H174.207C174.527 33.976 174.786 33.8907 174.983 33.72C175.181 33.544 175.279 33.3093 175.279 33.016C175.279 32.7173 175.181 32.48 174.983 32.304C174.786 32.1227 174.527 32.032 174.207 32.032H173.007V33.976ZM184.545 32.616L183.841 32.864C183.803 32.6187 183.683 32.3973 183.481 32.2C183.278 31.9973 182.998 31.896 182.641 31.896C182.326 31.896 182.065 31.9867 181.857 32.168C181.649 32.3493 181.545 32.5733 181.545 32.84C181.545 33.048 181.606 33.224 181.729 33.368C181.857 33.512 182.038 33.6107 182.273 33.664L183.121 33.848C183.59 33.9493 183.953 34.1413 184.209 34.424C184.465 34.7013 184.593 35.04 184.593 35.44C184.593 35.8987 184.411 36.2933 184.049 36.624C183.686 36.9547 183.214 37.12 182.633 37.12C181.998 37.12 181.499 36.9547 181.137 36.624C180.779 36.288 180.571 35.8907 180.513 35.432L181.265 35.192C181.297 35.5333 181.43 35.8213 181.665 36.056C181.899 36.2907 182.219 36.408 182.625 36.408C182.998 36.408 183.286 36.3227 183.489 36.152C183.691 35.9813 183.793 35.7653 183.793 35.504C183.793 35.2907 183.721 35.1067 183.577 34.952C183.433 34.792 183.222 34.6827 182.945 34.624L182.137 34.448C181.715 34.3573 181.379 34.1787 181.129 33.912C180.878 33.6453 180.753 33.3067 180.753 32.896C180.753 32.448 180.934 32.056 181.297 31.72C181.665 31.3787 182.107 31.208 182.625 31.208C183.206 31.208 183.651 31.3493 183.961 31.632C184.27 31.9147 184.465 32.2427 184.545 32.616ZM188.968 37.12C188.194 37.12 187.53 36.8533 186.976 36.32C186.426 35.7867 186.152 35.0667 186.152 34.16C186.152 33.552 186.29 33.0187 186.568 32.56C186.845 32.1013 187.194 31.7627 187.616 31.544C188.037 31.32 188.488 31.208 188.968 31.208C189.608 31.208 190.146 31.3707 190.584 31.696C191.026 32.016 191.32 32.4533 191.464 33.008L190.736 33.264C190.629 32.8373 190.424 32.5093 190.12 32.28C189.816 32.0453 189.432 31.928 188.968 31.928C188.413 31.928 187.938 32.1253 187.544 32.52C187.149 32.9093 186.952 33.456 186.952 34.16C186.952 34.864 187.149 35.4133 187.544 35.808C187.938 36.2027 188.413 36.4 188.968 36.4C189.432 36.4 189.818 36.2773 190.128 36.032C190.437 35.7813 190.653 35.4507 190.776 35.04L191.472 35.296C191.317 35.8453 191.018 36.288 190.576 36.624C190.138 36.9547 189.602 37.12 188.968 37.12ZM194.354 32.52C193.954 32.9093 193.754 33.456 193.754 34.16C193.754 34.864 193.954 35.4133 194.354 35.808C194.754 36.2027 195.236 36.4 195.802 36.4C196.367 36.4 196.85 36.2027 197.25 35.808C197.65 35.4133 197.85 34.864 197.85 34.16C197.85 33.456 197.65 32.9093 197.25 32.52C196.85 32.1253 196.367 31.928 195.802 31.928C195.236 31.928 194.754 32.1253 194.354 32.52ZM192.954 34.16C192.954 33.7013 193.034 33.2827 193.194 32.904C193.359 32.5253 193.575 32.216 193.842 31.976C194.114 31.7307 194.418 31.5413 194.754 31.408C195.09 31.2747 195.439 31.208 195.802 31.208C196.164 31.208 196.514 31.2747 196.85 31.408C197.186 31.5413 197.487 31.7307 197.754 31.976C198.026 32.216 198.242 32.5253 198.402 32.904C198.567 33.2827 198.65 33.7013 198.65 34.16C198.65 34.768 198.508 35.3013 198.226 35.76C197.948 36.2187 197.596 36.56 197.17 36.784C196.743 37.008 196.287 37.12 195.802 37.12C195.316 37.12 194.86 37.008 194.434 36.784C194.007 36.56 193.652 36.2187 193.37 35.76C193.092 35.3013 192.954 34.768 192.954 34.16ZM203.544 37L202.248 34.68H201.4V37H200.608V31.328H202.744C203.266 31.328 203.685 31.4907 204 31.816C204.32 32.136 204.48 32.536 204.48 33.016C204.48 33.4267 204.357 33.7787 204.112 34.072C203.866 34.36 203.53 34.544 203.104 34.624L204.456 37H203.544ZM201.4 33.976H202.6C202.92 33.976 203.178 33.8907 203.376 33.72C203.573 33.544 203.672 33.3093 203.672 33.016C203.672 32.7173 203.573 32.48 203.376 32.304C203.178 32.1227 202.92 32.032 202.6 32.032H201.4V33.976ZM209.889 37H206.441V31.328H209.889V32.056H207.225V33.8H209.641V34.536H207.225V36.272H209.889V37ZM213.521 35.376H212.817C212.812 35.312 212.809 35.2187 212.809 35.096C212.809 34.5627 213.03 34.1467 213.473 33.848L213.825 33.608C214.108 33.416 214.249 33.1547 214.249 32.824C214.249 32.568 214.166 32.352 214.001 32.176C213.836 32 213.601 31.912 213.297 31.912C212.972 31.912 212.724 32.0133 212.553 32.216C212.382 32.4187 212.297 32.6587 212.297 32.936C212.297 33.096 212.316 33.2267 212.353 33.328L211.577 33.232C211.545 33.12 211.529 32.992 211.529 32.848C211.529 32.5867 211.588 32.336 211.705 32.096C211.822 31.856 212.02 31.648 212.297 31.472C212.574 31.296 212.908 31.208 213.297 31.208C213.83 31.208 214.254 31.368 214.569 31.688C214.889 32.008 215.049 32.384 215.049 32.816C215.049 33.376 214.777 33.84 214.233 34.208L213.865 34.456C213.63 34.616 213.513 34.872 213.513 35.224C213.513 35.272 213.516 35.3227 213.521 35.376ZM212.793 36.888C212.692 36.7867 212.641 36.664 212.641 36.52C212.641 36.376 212.692 36.2533 212.793 36.152C212.894 36.0453 213.017 35.992 213.161 35.992C213.305 35.992 213.428 36.0453 213.529 36.152C213.636 36.2533 213.689 36.376 213.689 36.52C213.689 36.664 213.636 36.7867 213.529 36.888C213.428 36.9893 213.305 37.04 213.161 37.04C213.017 37.04 212.894 36.9893 212.793 36.888ZM217.919 31.328L217.719 35.376H217.183L216.975 31.328H217.919ZM217.079 36.888C216.978 36.7867 216.927 36.664 216.927 36.52C216.927 36.376 216.978 36.2533 217.079 36.152C217.181 36.0453 217.303 35.992 217.447 35.992C217.591 35.992 217.714 36.0453 217.815 36.152C217.922 36.2533 217.975 36.376 217.975 36.52C217.975 36.664 217.922 36.7867 217.815 36.888C217.714 36.9893 217.591 37.04 217.447 37.04C217.303 37.04 217.181 36.9893 217.079 36.888Z" fill="#212034"/>
</svg>
