<svg width="217" height="44" viewBox="0 0 217 44" fill="none" xmlns="http://www.w3.org/2000/svg">
<path fill-rule="evenodd" clip-rule="evenodd" d="M0.617293 34.512L0.478121 34.4738C0.287322 35.0512 0.125703 35.6357 0 36.2227C0.170597 35.6405 0.37711 35.0703 0.617293 34.512Z" fill="#FF0000"/>
<path fill-rule="evenodd" clip-rule="evenodd" d="M0.843994 33.4884L1.0752 33.5504C1.52414 32.6843 2.05613 31.8564 2.65322 31.0858L2.22673 30.7565C1.688 31.6345 1.22335 32.5483 0.843994 33.4884Z" fill="#FF0000"/>
<path fill-rule="evenodd" clip-rule="evenodd" d="M2.82837 29.8379L3.34914 30.2435C4.42211 29.0291 5.66567 27.9769 7.00576 27.1466L6.55682 25.8177C5.13143 26.9772 3.86991 28.342 2.82837 29.8379Z" fill="#FF0000"/>
<path fill-rule="evenodd" clip-rule="evenodd" d="M7.42554 25.152L7.92386 26.6193C9.6433 25.7127 11.4907 25.1687 13.3313 25.0995L14.0743 22.2221C12.5165 22.5108 10.925 23.0762 9.37169 23.9256C8.69828 24.2907 8.04956 24.701 7.42554 25.152Z" fill="#FFC700"/>
<path fill-rule="evenodd" clip-rule="evenodd" d="M15.0372 22.079L14.2583 25.1043C16.4873 25.2188 18.3526 26.0586 19.7084 27.4115L22.9385 24.2501C22.8061 24.138 22.6714 24.0282 22.53 23.9233C20.4828 22.382 17.8408 21.7664 15.0372 22.079Z" fill="#FFC700"/>
<path fill-rule="evenodd" clip-rule="evenodd" d="M20.2695 28.039C21.8969 30.067 22.5479 32.973 21.8565 36.2227H25.6995C26.7073 31.699 25.796 27.6549 23.4997 24.8777L20.2695 28.039Z" fill="#27AE60"/>
<path fill-rule="evenodd" clip-rule="evenodd" d="M19.5043 28.2847L15.3112 32.6796L12.1574 35.9817C12.2225 36.1964 12.2292 36.4493 12.1619 36.7165C11.9599 37.5134 11.1899 38.16 10.4402 38.16C9.69047 38.16 9.24377 37.5134 9.4458 36.7165C9.64782 35.9196 10.4178 35.2731 11.1675 35.2731C11.3291 35.2731 11.4773 35.3041 11.6097 35.359L14.997 32.3217L19.5043 28.2847Z" fill="white"/>
<path d="M10.5 9.64037V14.2404L13.95 11.9404L16.825 10.7904H31.2V4.46537L30.05 1.59037L27.175 1.01537L12.8 6.76537L10.5 9.64037Z" fill="#FF0000"/>
<path d="M10.1892 19.6487V17.5068C10.1892 13.8949 13.1749 10.946 16.832 10.946H37.1139C40.771 10.946 43.7568 13.8949 43.7568 17.5068V20.0195M43.7568 27.1735V29.25C43.7568 32.8619 40.771 35.8108 37.1139 35.8108H29.4595" stroke="white" stroke-linecap="round" stroke-linejoin="round"/>
<path d="M10.1892 19.6487V11.4259C10.1892 9.28478 11.4385 7.37745 13.3381 6.62174L26.9262 1.22384C29.0482 0.378173 31.3243 2.03358 31.3243 4.42665V10.3243" stroke="white" stroke-linecap="round" stroke-linejoin="round"/>
<path d="M45 21.707V25.174C45 26.0996 44.3094 26.8568 43.4305 26.8905H40.3543C38.6593 26.8905 37.1055 25.561 36.9643 23.7434C36.8701 22.6831 37.2468 21.6902 37.9059 21.0002C38.4866 20.3607 39.2871 19.9905 40.166 19.9905H43.4305C44.3094 20.0241 45 20.7814 45 21.707Z" fill="#CCCCCC" stroke="white" stroke-linecap="round" stroke-linejoin="round"/>
<path d="M17.6487 18.4055H30.0811" stroke="white" stroke-width="2" stroke-linecap="round" stroke-linejoin="round"/>
<path d="M69.498 21L78.26 3.658H74.022L68.224 16.19L67.704 3.658H64.818L58.76 16.19L58.5 3.658H54.444L55.588 21H59.514L65.156 9.092L65.572 21H69.498ZM81.8722 8.13C77.6082 8.13 75.2422 12.316 75.2422 16.112C75.2422 19.44 77.1922 21.312 80.0262 21.312C81.5342 21.312 82.7302 20.688 83.7962 19.44L83.4322 21H86.7602L89.5422 8.442H86.2142L85.8762 10.106C85.0442 8.858 83.5622 8.13 81.8722 8.13ZM82.3922 11.068C83.7182 11.068 84.7842 11.666 85.3302 12.524L84.3682 16.866C83.6922 17.724 82.6522 18.374 81.4822 18.374C79.8962 18.374 78.7002 17.23 78.7002 15.436C78.7002 13.122 80.2342 11.068 82.3922 11.068ZM93.0765 21L96.8985 3.658H93.5965L89.7745 21H93.0765ZM99.3927 21L103.215 3.658H99.9127L96.0907 21H99.3927ZM109.401 21.312C110.961 21.312 112.625 20.844 113.847 20.012L112.833 17.698C112.053 18.296 110.779 18.608 109.661 18.608C107.321 18.608 106.203 17.178 106.203 16.112C106.203 16.034 106.203 15.878 106.203 15.8H115.537C115.641 15.41 115.797 14.474 115.797 13.72C115.797 10.21 113.379 8.13 110.155 8.13C105.969 8.13 102.901 11.588 102.901 15.67C102.901 19.18 105.449 21.312 109.401 21.312ZM112.807 13.512H106.567C106.827 12.134 108.153 10.834 109.947 10.834C111.923 10.834 112.859 11.978 112.859 13.252C112.859 13.304 112.859 13.46 112.833 13.512H112.807ZM121.562 21.312C122.368 21.312 123.148 21.104 123.616 20.766L123.512 18.114C123.356 18.244 122.94 18.374 122.602 18.374C121.77 18.374 121.38 17.958 121.38 17.282C121.38 17.126 121.38 16.996 121.406 16.84L122.628 11.328H125.176L125.826 8.442H123.278L124.032 5.01H120.73L119.976 8.442H117.896L117.246 11.328H119.326L117.922 17.724C117.844 18.036 117.818 18.426 117.818 18.582C117.818 20.454 119.326 21.312 121.562 21.312ZM140.513 21L149.275 3.658H147.559L140.019 18.92L139.135 3.658H137.783L130.139 18.92L129.359 3.658H127.721L128.865 21H130.529L137.965 6.102L138.849 21H140.513ZM153.829 8.13C149.851 8.13 147.225 11.926 147.225 16.164C147.225 19.388 149.253 21.312 152.139 21.312C153.933 21.312 155.415 20.428 156.455 19.102L156.013 21H157.391L160.173 8.442H158.795L158.353 10.574C157.495 9.144 155.883 8.13 153.829 8.13ZM153.933 9.352C155.961 9.352 157.469 10.392 158.093 11.64L156.767 17.672C155.909 18.972 154.271 20.09 152.503 20.09C150.215 20.09 148.707 18.478 148.707 15.904C148.707 12.602 150.787 9.352 153.933 9.352ZM171.881 21L167.565 14.11L174.689 8.442H172.791L163.899 15.514L166.525 3.658H165.173L161.351 21H162.703L163.535 17.23L166.447 14.942L170.217 21H171.881ZM180.641 21.312C182.279 21.312 183.891 20.636 185.009 19.778L184.489 18.79C183.397 19.7 181.967 20.142 180.693 20.142C177.625 20.142 176.091 18.192 176.091 15.878C176.091 15.644 176.117 15.306 176.143 15.15H186.751C186.829 14.838 186.959 14.11 186.959 13.564C186.959 10.496 184.983 8.13 181.629 8.13C177.729 8.13 174.661 11.588 174.661 15.774C174.661 19.05 176.871 21.312 180.641 21.312ZM185.555 14.084H176.273C176.715 11.51 178.951 9.3 181.473 9.3C184.177 9.3 185.659 11.068 185.659 13.512C185.659 13.668 185.659 13.954 185.633 14.084H185.555ZM191.415 8.442L189.517 17.178C189.439 17.464 189.361 18.01 189.361 18.244C189.361 20.298 190.895 21.312 193.027 21.312C194.795 21.312 196.433 20.194 197.551 19.102L197.135 21H198.487L201.269 8.442H199.917L197.811 17.88C196.745 19.024 195.133 20.09 193.547 20.09C191.961 20.09 190.765 19.44 190.765 17.88C190.765 17.568 190.843 17.178 190.895 16.944L192.793 8.442H191.415ZM208.784 21.312C212.736 21.312 215.362 17.49 215.362 13.278C215.362 10.054 213.334 8.13 210.474 8.13C208.68 8.13 207.172 9.014 206.158 10.34L206.574 8.442H205.222L201.374 25.784H202.726L204.26 18.868C205.118 20.298 206.704 21.312 208.784 21.312ZM208.654 20.09C206.626 20.09 205.118 19.05 204.494 17.802L205.82 11.77C206.704 10.47 208.316 9.352 210.084 9.352C212.372 9.352 213.88 10.964 213.88 13.538C213.88 16.84 211.826 20.09 208.654 20.09Z" fill="white"/>
<path d="M69.498 21L78.26 3.658H74.022L68.224 16.19L67.704 3.658H64.818L58.76 16.19L58.5 3.658H54.444L55.588 21H59.514L65.156 9.092L65.572 21H69.498ZM81.8722 8.13C77.6082 8.13 75.2422 12.316 75.2422 16.112C75.2422 19.44 77.1922 21.312 80.0262 21.312C81.5342 21.312 82.7302 20.688 83.7962 19.44L83.4322 21H86.7602L89.5422 8.442H86.2142L85.8762 10.106C85.0442 8.858 83.5622 8.13 81.8722 8.13ZM82.3922 11.068C83.7182 11.068 84.7842 11.666 85.3302 12.524L84.3682 16.866C83.6922 17.724 82.6522 18.374 81.4822 18.374C79.8962 18.374 78.7002 17.23 78.7002 15.436C78.7002 13.122 80.2342 11.068 82.3922 11.068ZM93.0765 21L96.8985 3.658H93.5965L89.7745 21H93.0765ZM99.3927 21L103.215 3.658H99.9127L96.0907 21H99.3927ZM109.401 21.312C110.961 21.312 112.625 20.844 113.847 20.012L112.833 17.698C112.053 18.296 110.779 18.608 109.661 18.608C107.321 18.608 106.203 17.178 106.203 16.112C106.203 16.034 106.203 15.878 106.203 15.8H115.537C115.641 15.41 115.797 14.474 115.797 13.72C115.797 10.21 113.379 8.13 110.155 8.13C105.969 8.13 102.901 11.588 102.901 15.67C102.901 19.18 105.449 21.312 109.401 21.312ZM112.807 13.512H106.567C106.827 12.134 108.153 10.834 109.947 10.834C111.923 10.834 112.859 11.978 112.859 13.252C112.859 13.304 112.859 13.46 112.833 13.512H112.807ZM121.562 21.312C122.368 21.312 123.148 21.104 123.616 20.766L123.512 18.114C123.356 18.244 122.94 18.374 122.602 18.374C121.77 18.374 121.38 17.958 121.38 17.282C121.38 17.126 121.38 16.996 121.406 16.84L122.628 11.328H125.176L125.826 8.442H123.278L124.032 5.01H120.73L119.976 8.442H117.896L117.246 11.328H119.326L117.922 17.724C117.844 18.036 117.818 18.426 117.818 18.582C117.818 20.454 119.326 21.312 121.562 21.312ZM140.513 21L149.275 3.658H147.559L140.019 18.92L139.135 3.658H137.783L130.139 18.92L129.359 3.658H127.721L128.865 21H130.529L137.965 6.102L138.849 21H140.513ZM153.829 8.13C149.851 8.13 147.225 11.926 147.225 16.164C147.225 19.388 149.253 21.312 152.139 21.312C153.933 21.312 155.415 20.428 156.455 19.102L156.013 21H157.391L160.173 8.442H158.795L158.353 10.574C157.495 9.144 155.883 8.13 153.829 8.13ZM153.933 9.352C155.961 9.352 157.469 10.392 158.093 11.64L156.767 17.672C155.909 18.972 154.271 20.09 152.503 20.09C150.215 20.09 148.707 18.478 148.707 15.904C148.707 12.602 150.787 9.352 153.933 9.352ZM171.881 21L167.565 14.11L174.689 8.442H172.791L163.899 15.514L166.525 3.658H165.173L161.351 21H162.703L163.535 17.23L166.447 14.942L170.217 21H171.881ZM180.641 21.312C182.279 21.312 183.891 20.636 185.009 19.778L184.489 18.79C183.397 19.7 181.967 20.142 180.693 20.142C177.625 20.142 176.091 18.192 176.091 15.878C176.091 15.644 176.117 15.306 176.143 15.15H186.751C186.829 14.838 186.959 14.11 186.959 13.564C186.959 10.496 184.983 8.13 181.629 8.13C177.729 8.13 174.661 11.588 174.661 15.774C174.661 19.05 176.871 21.312 180.641 21.312ZM185.555 14.084H176.273C176.715 11.51 178.951 9.3 181.473 9.3C184.177 9.3 185.659 11.068 185.659 13.512C185.659 13.668 185.659 13.954 185.633 14.084H185.555ZM191.415 8.442L189.517 17.178C189.439 17.464 189.361 18.01 189.361 18.244C189.361 20.298 190.895 21.312 193.027 21.312C194.795 21.312 196.433 20.194 197.551 19.102L197.135 21H198.487L201.269 8.442H199.917L197.811 17.88C196.745 19.024 195.133 20.09 193.547 20.09C191.961 20.09 190.765 19.44 190.765 17.88C190.765 17.568 190.843 17.178 190.895 16.944L192.793 8.442H191.415ZM208.784 21.312C212.736 21.312 215.362 17.49 215.362 13.278C215.362 10.054 213.334 8.13 210.474 8.13C208.68 8.13 207.172 9.014 206.158 10.34L206.574 8.442H205.222L201.374 25.784H202.726L204.26 18.868C205.118 20.298 206.704 21.312 208.784 21.312ZM208.654 20.09C206.626 20.09 205.118 19.05 204.494 17.802L205.82 11.77C206.704 10.47 208.316 9.352 210.084 9.352C212.372 9.352 213.88 10.964 213.88 13.538C213.88 16.84 211.826 20.09 208.654 20.09Z" fill="white"/>
<path d="M58.88 35.816L60.104 31.328H60.912L59.296 37H58.488L57.008 32.4L55.544 37H54.76L53.12 31.328H53.928L55.176 35.768L56.6 31.328H57.424L58.88 35.816ZM66.1999 37L65.5839 35.416H63.0719L62.4719 37H61.6319L63.8879 31.328H64.7919L67.0479 37H66.1999ZM64.3199 32.144L63.3519 34.688H65.3039L64.3199 32.144ZM72.242 37L70.322 34.424L69.514 35.288V37H68.73V31.328H69.514V34.248L72.17 31.328H73.202L70.842 33.856L73.234 37H72.242ZM78.4017 37H74.9537V31.328H78.4017V32.056H75.7377V33.8H78.1537V34.536H75.7377V36.272H78.4017V37ZM83.9062 36.576C83.5275 36.9387 83.0395 37.12 82.4422 37.12C81.8449 37.12 81.3542 36.9387 80.9702 36.576C80.5915 36.2133 80.4022 35.7093 80.4022 35.064V31.328H81.1782V35.04C81.1782 35.472 81.2875 35.8053 81.5062 36.04C81.7302 36.2747 82.0422 36.392 82.4422 36.392C82.8422 36.392 83.1515 36.2747 83.3702 36.04C83.5889 35.8053 83.6982 35.472 83.6982 35.04V31.328H84.4822V35.064C84.4822 35.7093 84.2902 36.2133 83.9062 36.576ZM87.5056 33.976H88.6416C88.9776 33.976 89.2442 33.8907 89.4416 33.72C89.6389 33.544 89.7376 33.3093 89.7376 33.016C89.7376 32.7173 89.6389 32.48 89.4416 32.304C89.2442 32.1227 88.9776 32.032 88.6416 32.032H87.5056V33.976ZM88.7856 34.68H87.5056V37H86.7216V31.328H88.7856C89.3029 31.328 89.7242 31.488 90.0496 31.808C90.3749 32.128 90.5376 32.528 90.5376 33.008C90.5376 33.4933 90.3749 33.8933 90.0496 34.208C89.7242 34.5227 89.3029 34.68 88.7856 34.68ZM93.367 31.328L93.167 35.376H92.631L92.423 31.328H93.367ZM92.527 36.888C92.4257 36.7867 92.375 36.664 92.375 36.52C92.375 36.376 92.4257 36.2533 92.527 36.152C92.6283 36.0453 92.751 35.992 92.895 35.992C93.039 35.992 93.1617 36.0453 93.263 36.152C93.3697 36.2533 93.423 36.376 93.423 36.52C93.423 36.664 93.3697 36.7867 93.263 36.888C93.1617 36.9893 93.039 37.04 92.895 37.04C92.751 37.04 92.6283 36.9893 92.527 36.888ZM103.779 35.816L105.003 31.328H105.811L104.195 37H103.387L101.907 32.4L100.443 37H99.6594L98.0194 31.328H98.8274L100.075 35.768L101.499 31.328H102.323L103.779 35.816ZM111.995 37H111.211V34.48H108.315V37H107.531V31.328H108.315V33.752H111.211V31.328H111.995V37ZM118.245 37L117.629 35.416H115.117L114.517 37H113.677L115.933 31.328H116.837L119.093 37H118.245ZM116.365 32.144L115.397 34.688H117.349L116.365 32.144ZM124.188 32.056H122.292V37H121.508V32.056H119.612V31.328H124.188V32.056ZM125.708 31.752C125.708 31.6187 125.759 31.504 125.86 31.408C125.967 31.3067 126.097 31.256 126.252 31.256C126.423 31.256 126.567 31.3173 126.684 31.44C126.801 31.5627 126.86 31.736 126.86 31.96C126.86 32.408 126.745 32.7547 126.516 33C126.292 33.2453 126.039 33.384 125.756 33.416V33.032C125.932 32.9947 126.076 32.8987 126.188 32.744C126.305 32.584 126.367 32.4107 126.372 32.224C126.335 32.2507 126.281 32.264 126.212 32.264C126.068 32.264 125.948 32.2187 125.852 32.128C125.756 32.032 125.708 31.9067 125.708 31.752ZM132.393 32.616L131.689 32.864C131.652 32.6187 131.532 32.3973 131.329 32.2C131.127 31.9973 130.847 31.896 130.489 31.896C130.175 31.896 129.913 31.9867 129.705 32.168C129.497 32.3493 129.393 32.5733 129.393 32.84C129.393 33.048 129.455 33.224 129.577 33.368C129.705 33.512 129.887 33.6107 130.121 33.664L130.969 33.848C131.439 33.9493 131.801 34.1413 132.057 34.424C132.313 34.7013 132.441 35.04 132.441 35.44C132.441 35.8987 132.26 36.2933 131.897 36.624C131.535 36.9547 131.063 37.12 130.481 37.12C129.847 37.12 129.348 36.9547 128.985 36.624C128.628 36.288 128.42 35.8907 128.361 35.432L129.113 35.192C129.145 35.5333 129.279 35.8213 129.513 36.056C129.748 36.2907 130.068 36.408 130.473 36.408C130.847 36.408 131.135 36.3227 131.337 36.152C131.54 35.9813 131.641 35.7653 131.641 35.504C131.641 35.2907 131.569 35.1067 131.425 34.952C131.281 34.792 131.071 34.6827 130.793 34.624L129.985 34.448C129.564 34.3573 129.228 34.1787 128.977 33.912C128.727 33.6453 128.601 33.3067 128.601 32.896C128.601 32.448 128.783 32.056 129.145 31.72C129.513 31.3787 129.956 31.208 130.473 31.208C131.055 31.208 131.5 31.3493 131.809 31.632C132.119 31.9147 132.313 32.2427 132.393 32.616ZM138.079 37H137.279V31.328H138.079V37ZM145.066 37H144.25L141.186 32.376V37H140.402V31.328H141.45L144.282 35.68V31.328H145.066V37ZM151.623 34.576L149.623 31.328H150.567L152.039 33.856L153.511 31.328H154.407L152.407 34.576V37H151.623V34.576ZM156.769 32.52C156.369 32.9093 156.169 33.456 156.169 34.16C156.169 34.864 156.369 35.4133 156.769 35.808C157.169 36.2027 157.652 36.4 158.217 36.4C158.782 36.4 159.265 36.2027 159.665 35.808C160.065 35.4133 160.265 34.864 160.265 34.16C160.265 33.456 160.065 32.9093 159.665 32.52C159.265 32.1253 158.782 31.928 158.217 31.928C157.652 31.928 157.169 32.1253 156.769 32.52ZM155.369 34.16C155.369 33.7013 155.449 33.2827 155.609 32.904C155.774 32.5253 155.99 32.216 156.257 31.976C156.529 31.7307 156.833 31.5413 157.169 31.408C157.505 31.2747 157.854 31.208 158.217 31.208C158.58 31.208 158.929 31.2747 159.265 31.408C159.601 31.5413 159.902 31.7307 160.169 31.976C160.441 32.216 160.657 32.5253 160.817 32.904C160.982 33.2827 161.065 33.7013 161.065 34.16C161.065 34.768 160.924 35.3013 160.641 35.76C160.364 36.2187 160.012 36.56 159.585 36.784C159.158 37.008 158.702 37.12 158.217 37.12C157.732 37.12 157.276 37.008 156.849 36.784C156.422 36.56 156.068 36.2187 155.785 35.76C155.508 35.3013 155.369 34.768 155.369 34.16ZM166.447 36.576C166.068 36.9387 165.58 37.12 164.983 37.12C164.386 37.12 163.895 36.9387 163.511 36.576C163.132 36.2133 162.943 35.7093 162.943 35.064V31.328H163.719V35.04C163.719 35.472 163.828 35.8053 164.047 36.04C164.271 36.2747 164.583 36.392 164.983 36.392C165.383 36.392 165.692 36.2747 165.911 36.04C166.13 35.8053 166.239 35.472 166.239 35.04V31.328H167.023V35.064C167.023 35.7093 166.831 36.2133 166.447 36.576ZM172.199 37L170.903 34.68H170.055V37H169.263V31.328H171.399C171.921 31.328 172.34 31.4907 172.655 31.816C172.975 32.136 173.135 32.536 173.135 33.016C173.135 33.4267 173.012 33.7787 172.767 34.072C172.521 34.36 172.185 34.544 171.759 34.624L173.111 37H172.199ZM170.055 33.976H171.255C171.575 33.976 171.833 33.8907 172.031 33.72C172.228 33.544 172.327 33.3093 172.327 33.016C172.327 32.7173 172.228 32.48 172.031 32.304C171.833 32.1227 171.575 32.032 171.255 32.032H170.055V33.976ZM181.592 32.616L180.888 32.864C180.85 32.6187 180.73 32.3973 180.528 32.2C180.325 31.9973 180.045 31.896 179.688 31.896C179.373 31.896 179.112 31.9867 178.904 32.168C178.696 32.3493 178.592 32.5733 178.592 32.84C178.592 33.048 178.653 33.224 178.776 33.368C178.904 33.512 179.085 33.6107 179.32 33.664L180.168 33.848C180.637 33.9493 181 34.1413 181.256 34.424C181.512 34.7013 181.64 35.04 181.64 35.44C181.64 35.8987 181.458 36.2933 181.096 36.624C180.733 36.9547 180.261 37.12 179.68 37.12C179.045 37.12 178.546 36.9547 178.184 36.624C177.826 36.288 177.618 35.8907 177.56 35.432L178.312 35.192C178.344 35.5333 178.477 35.8213 178.712 36.056C178.946 36.2907 179.266 36.408 179.672 36.408C180.045 36.408 180.333 36.3227 180.536 36.152C180.738 35.9813 180.84 35.7653 180.84 35.504C180.84 35.2907 180.768 35.1067 180.624 34.952C180.48 34.792 180.269 34.6827 179.992 34.624L179.184 34.448C178.762 34.3573 178.426 34.1787 178.176 33.912C177.925 33.6453 177.8 33.3067 177.8 32.896C177.8 32.448 177.981 32.056 178.344 31.72C178.712 31.3787 179.154 31.208 179.672 31.208C180.253 31.208 180.698 31.3493 181.008 31.632C181.317 31.9147 181.512 32.2427 181.592 32.616ZM186.015 37.12C185.241 37.12 184.577 36.8533 184.023 36.32C183.473 35.7867 183.199 35.0667 183.199 34.16C183.199 33.552 183.337 33.0187 183.615 32.56C183.892 32.1013 184.241 31.7627 184.663 31.544C185.084 31.32 185.535 31.208 186.015 31.208C186.655 31.208 187.193 31.3707 187.631 31.696C188.073 32.016 188.367 32.4533 188.511 33.008L187.783 33.264C187.676 32.8373 187.471 32.5093 187.167 32.28C186.863 32.0453 186.479 31.928 186.015 31.928C185.46 31.928 184.985 32.1253 184.591 32.52C184.196 32.9093 183.999 33.456 183.999 34.16C183.999 34.864 184.196 35.4133 184.591 35.808C184.985 36.2027 185.46 36.4 186.015 36.4C186.479 36.4 186.865 36.2773 187.175 36.032C187.484 35.7813 187.7 35.4507 187.823 35.04L188.519 35.296C188.364 35.8453 188.065 36.288 187.623 36.624C187.185 36.9547 186.649 37.12 186.015 37.12ZM191.401 32.52C191.001 32.9093 190.801 33.456 190.801 34.16C190.801 34.864 191.001 35.4133 191.401 35.808C191.801 36.2027 192.283 36.4 192.849 36.4C193.414 36.4 193.897 36.2027 194.297 35.808C194.697 35.4133 194.897 34.864 194.897 34.16C194.897 33.456 194.697 32.9093 194.297 32.52C193.897 32.1253 193.414 31.928 192.849 31.928C192.283 31.928 191.801 32.1253 191.401 32.52ZM190.001 34.16C190.001 33.7013 190.081 33.2827 190.241 32.904C190.406 32.5253 190.622 32.216 190.889 31.976C191.161 31.7307 191.465 31.5413 191.801 31.408C192.137 31.2747 192.486 31.208 192.849 31.208C193.211 31.208 193.561 31.2747 193.897 31.408C194.233 31.5413 194.534 31.7307 194.801 31.976C195.073 32.216 195.289 32.5253 195.449 32.904C195.614 33.2827 195.697 33.7013 195.697 34.16C195.697 34.768 195.555 35.3013 195.273 35.76C194.995 36.2187 194.643 36.56 194.217 36.784C193.79 37.008 193.334 37.12 192.849 37.12C192.363 37.12 191.907 37.008 191.481 36.784C191.054 36.56 190.699 36.2187 190.417 35.76C190.139 35.3013 190.001 34.768 190.001 34.16ZM200.591 37L199.295 34.68H198.447V37H197.655V31.328H199.791C200.313 31.328 200.732 31.4907 201.047 31.816C201.367 32.136 201.527 32.536 201.527 33.016C201.527 33.4267 201.404 33.7787 201.159 34.072C200.913 34.36 200.577 34.544 200.151 34.624L201.503 37H200.591ZM198.447 33.976H199.647C199.967 33.976 200.225 33.8907 200.423 33.72C200.62 33.544 200.719 33.3093 200.719 33.016C200.719 32.7173 200.62 32.48 200.423 32.304C200.225 32.1227 199.967 32.032 199.647 32.032H198.447V33.976ZM206.936 37H203.488V31.328H206.936V32.056H204.272V33.8H206.688V34.536H204.272V36.272H206.936V37ZM210.568 35.376H209.864C209.859 35.312 209.856 35.2187 209.856 35.096C209.856 34.5627 210.078 34.1467 210.52 33.848L210.872 33.608C211.155 33.416 211.296 33.1547 211.296 32.824C211.296 32.568 211.214 32.352 211.048 32.176C210.883 32 210.648 31.912 210.344 31.912C210.019 31.912 209.771 32.0133 209.6 32.216C209.43 32.4187 209.344 32.6587 209.344 32.936C209.344 33.096 209.363 33.2267 209.4 33.328L208.624 33.232C208.592 33.12 208.576 32.992 208.576 32.848C208.576 32.5867 208.635 32.336 208.752 32.096C208.87 31.856 209.067 31.648 209.344 31.472C209.622 31.296 209.955 31.208 210.344 31.208C210.878 31.208 211.302 31.368 211.616 31.688C211.936 32.008 212.096 32.384 212.096 32.816C212.096 33.376 211.824 33.84 211.28 34.208L210.912 34.456C210.678 34.616 210.56 34.872 210.56 35.224C210.56 35.272 210.563 35.3227 210.568 35.376ZM209.84 36.888C209.739 36.7867 209.688 36.664 209.688 36.52C209.688 36.376 209.739 36.2533 209.84 36.152C209.942 36.0453 210.064 35.992 210.208 35.992C210.352 35.992 210.475 36.0453 210.576 36.152C210.683 36.2533 210.736 36.376 210.736 36.52C210.736 36.664 210.683 36.7867 210.576 36.888C210.475 36.9893 210.352 37.04 210.208 37.04C210.064 37.04 209.942 36.9893 209.84 36.888ZM214.966 31.328L214.766 35.376H214.23L214.022 31.328H214.966ZM214.126 36.888C214.025 36.7867 213.974 36.664 213.974 36.52C213.974 36.376 214.025 36.2533 214.126 36.152C214.228 36.0453 214.35 35.992 214.494 35.992C214.638 35.992 214.761 36.0453 214.862 36.152C214.969 36.2533 215.022 36.376 215.022 36.52C215.022 36.664 214.969 36.7867 214.862 36.888C214.761 36.9893 214.638 37.04 214.494 37.04C214.35 37.04 214.228 36.9893 214.126 36.888Z" fill="white"/>
</svg>
