<svg width="153" height="158" viewBox="0 0 153 158" fill="none" xmlns="http://www.w3.org/2000/svg">
<path d="M153 83.953V83.8291C153 83.3339 153 82.8386 153 82.4671C152.606 74.1708 150.769 66.1223 147.489 58.569C144.602 51.8824 140.666 45.6912 135.942 40.1191C137.123 37.8903 137.648 35.29 137.385 32.6897C136.991 28.9749 135.154 25.5078 132.136 23.0313C129.381 20.9263 125.969 19.6881 122.557 19.6881C119.408 19.6881 116.259 20.6787 113.766 22.4122C109.042 19.9357 104.056 17.9545 98.807 16.4687C98.6758 16.4687 98.5446 16.4687 98.5446 16.3448C97.8885 16.0972 97.1012 15.9734 96.4451 15.7257C96.5763 14.9828 96.5763 14.3636 96.5763 13.6207C96.5763 6.31505 90.5403 0.371473 82.7985 0C82.536 0 82.2736 0 82.0111 0H70.9889C70.7264 0 70.464 0 70.2015 0C62.5909 0.371473 56.4237 6.31505 56.4237 13.6207C56.4237 14.3636 56.4237 14.9828 56.5549 15.7257C55.8988 15.8495 55.1115 16.0972 54.4554 16.3448C54.3242 16.3448 54.193 16.3448 54.193 16.4687C48.9443 17.9545 43.958 19.9357 39.2341 22.4122C36.741 20.6787 33.5918 19.6881 30.4425 19.6881C26.8997 19.6881 23.488 20.8025 20.8636 23.0313C17.8456 25.5078 15.8774 28.8511 15.6149 32.6897C15.3525 35.29 15.8774 37.8903 17.0583 40.1191C12.3345 45.6912 8.39794 51.8824 5.51115 58.569C2.36192 65.9984 0.393654 74.047 0 82.4671C0 82.9624 0 83.4577 0 83.8291V83.953C0 84.4483 0 84.9436 0 85.5627C0 95.4687 2.09949 105.003 6.03602 113.671C6.82333 115.281 7.61063 116.89 8.39794 118.5C8.92281 119.491 9.5789 120.605 10.1038 121.596C11.6784 124.072 13.3842 126.549 15.2213 128.901C16.0086 129.768 16.6647 130.759 17.452 131.625C31.4923 147.723 52.7496 158 76.5 158C100.25 158 121.508 147.723 135.548 131.625C136.335 130.759 137.123 129.768 137.779 128.901C139.616 126.549 141.322 124.196 142.896 121.596C143.552 120.605 144.077 119.614 144.602 118.5C145.389 116.89 146.177 115.404 146.964 113.671C150.901 105.003 153 95.5925 153 85.5627C153 85.0674 153 84.5721 153 83.953Z" fill="white"/>
<path d="M143.683 83.953C143.683 83.8292 143.683 83.5815 143.683 83.4577C143.683 83.0862 143.683 82.7147 143.683 82.3433C143.683 82.0956 143.683 81.9718 143.683 81.7241C143.683 81.3527 143.683 81.105 143.683 80.7335C143.683 80.4859 143.683 80.2382 143.683 80.1144C143.683 79.8668 143.683 79.4953 143.552 79.2477C143.552 79 143.552 78.7524 143.421 78.6285C143.421 78.3809 143.29 78.0094 143.29 77.7618C143.29 77.5141 143.29 77.2665 143.159 77.0188C143.159 76.7712 143.027 76.3997 143.027 76.152C143.027 75.9044 142.896 75.6567 142.896 75.4091C142.896 75.1614 142.765 74.79 142.765 74.5423C142.765 74.2947 142.634 74.047 142.634 73.9232C142.634 73.6756 142.503 73.3041 142.503 73.0564C142.503 72.8088 142.371 72.5611 142.371 72.4373C142.371 72.1897 142.24 71.8182 142.109 71.5705C142.109 71.3229 141.978 71.0752 141.978 70.9514C141.846 70.7038 141.846 70.3323 141.715 70.0846C141.715 69.837 141.584 69.7132 141.584 69.4655C141.453 69.2179 141.453 68.8464 141.322 68.5987C141.322 68.3511 141.19 68.2273 141.19 67.9796C141.059 67.732 141.059 67.3605 140.928 67.1129C140.797 66.8652 140.797 66.7414 140.665 66.4937C140.534 66.2461 140.403 65.8746 140.403 65.627C140.272 65.3793 140.272 65.2555 140.141 65.0078C140.009 64.7602 139.878 64.3887 139.747 64.1411C139.616 64.0172 139.616 63.7696 139.484 63.6458C139.353 63.3981 139.222 63.0266 139.091 62.779C138.96 62.6552 138.96 62.4075 138.828 62.2837C138.697 61.9122 138.566 61.6646 138.435 61.2931C138.304 61.1693 138.304 60.9216 138.172 60.7978C138.041 60.4263 137.91 60.1787 137.647 59.8072C137.647 59.6834 137.516 59.5596 137.516 59.4357C137.385 59.0643 137.123 58.6928 136.991 58.3213C136.991 58.1975 136.86 58.1975 136.86 58.0737C136.598 57.5784 136.335 57.2069 136.204 56.7116C135.417 55.3495 134.629 53.9874 133.842 52.7492C133.58 52.3777 133.317 51.8824 133.055 51.511L132.924 51.3871C132.661 51.0157 132.399 50.6442 132.136 50.2727C132.136 50.1489 132.005 50.1489 132.005 50.0251C131.743 49.6536 131.48 49.4059 131.218 49.0345C131.087 48.9106 131.087 48.7868 130.955 48.7868C130.693 48.4154 130.43 48.1677 130.168 47.7962C130.037 47.6724 130.037 47.5486 129.906 47.5486C129.643 47.3009 129.381 46.9295 129.118 46.6818C128.987 46.558 128.987 46.4342 128.856 46.3103C128.593 46.0627 128.331 45.6912 128.069 45.4436C127.937 45.3197 127.937 45.1959 127.806 45.0721C127.544 44.8244 127.281 44.453 127.019 44.2053C126.888 44.0815 126.888 43.9577 126.756 43.9577C126.494 43.71 126.231 43.4624 125.969 43.0909C125.838 42.9671 125.838 42.8432 125.707 42.8432C125.444 42.5956 125.182 42.3479 124.919 41.9765C124.788 41.8526 124.788 41.7288 124.657 41.7288C124.394 41.4812 124.132 41.2335 123.87 40.9859L123.738 40.8621L126.625 37.5188C128.593 35.2899 128.331 31.9467 125.969 30.0893C123.607 28.232 120.064 28.4796 118.096 30.7084L115.209 34.0517C114.684 33.6802 114.028 33.3088 113.503 32.9373C113.372 32.8135 113.241 32.8135 113.241 32.6896C112.716 32.442 112.322 32.0705 111.798 31.8229C111.666 31.699 111.535 31.699 111.404 31.5752C110.879 31.2037 110.223 30.9561 109.698 30.5846C109.567 30.4608 109.436 30.4608 109.304 30.4608C108.78 30.2131 108.386 29.9655 107.861 29.7178C107.73 29.594 107.599 29.594 107.336 29.4702C106.811 29.2225 106.155 28.8511 105.63 28.6034C105.499 28.6034 105.499 28.4796 105.368 28.4796C104.843 28.232 104.318 27.9843 103.793 27.8605C103.662 27.7367 103.4 27.7367 103.268 27.6128C102.744 27.3652 102.087 27.1175 101.563 26.8699H101.431C100.775 26.6222 100.25 26.3746 99.5943 26.2508C99.4631 26.2508 99.2006 26.1269 99.0694 26.1269C98.5445 26.0031 98.0197 25.7555 97.4948 25.6316C97.3636 25.6316 97.2324 25.5078 97.1011 25.5078C96.445 25.2602 95.789 25.1363 95.1329 25.0125C95.0016 25.0125 94.7392 24.8887 94.608 24.8887C94.0831 24.7649 93.5583 24.641 93.0334 24.5172C92.9022 24.5172 92.7709 24.3934 92.6397 24.3934C91.9836 24.2696 91.3275 24.1457 90.6715 24.0219C90.5402 24.0219 90.409 24.0219 90.2778 23.8981C89.7529 23.7743 89.2281 23.6504 88.572 23.6504C88.4408 23.6504 88.1783 23.6504 88.0471 23.5266C87.391 23.4028 86.7349 23.279 85.9476 23.279C85.8164 23.279 85.8164 23.279 85.6852 23.279C85.0291 23.1551 84.5042 23.1551 83.8481 23.0313C83.7169 23.0313 83.4545 23.0313 83.3233 23.0313C82.5359 22.4122 81.8799 22.2884 81.0926 22.2884V18.4498H81.8799C82.6672 18.4498 83.4545 18.326 84.1106 17.9545C84.6354 17.7069 85.1603 17.4592 85.554 16.9639C86.4725 16.0971 86.9974 14.8589 86.9974 13.6207C86.9974 11.0203 84.7667 8.7915 81.8799 8.7915H70.8576C68.102 8.7915 65.7401 10.8965 65.7401 13.6207C65.7401 14.9827 66.2649 16.0971 67.1835 16.9639C67.5771 17.3354 68.102 17.7069 68.6269 17.9545C69.283 18.2022 70.0703 18.4498 70.8576 18.4498H71.6449V22.2884C70.9888 22.2884 70.2015 22.4122 69.5454 22.4122C69.4142 22.4122 69.1517 22.4122 69.0205 22.4122C68.3644 22.536 67.8396 22.536 67.1835 22.6598C67.0522 22.6598 67.0522 22.6598 66.921 22.6598C66.2649 22.7837 65.6089 22.9075 64.8215 22.9075C64.6903 22.9075 64.4279 22.9075 64.2967 23.0313C63.7718 23.1551 63.2469 23.279 62.5908 23.279C62.4596 23.279 62.3284 23.279 62.1972 23.4028C61.5411 23.5266 60.885 23.6504 60.2289 23.7743C60.0977 23.7743 59.9665 23.8981 59.8353 23.8981C59.3104 24.0219 58.7855 24.1457 58.2607 24.2696C58.1294 24.2696 57.867 24.3934 57.7358 24.3934C57.0797 24.5172 56.4236 24.7649 55.7675 24.8887C55.6363 24.8887 55.5051 25.0125 55.3739 25.0125C54.849 25.1363 54.3241 25.384 53.7992 25.5078C53.668 25.5078 53.4056 25.6316 53.2744 25.6316C52.6183 25.8793 51.9622 26.1269 51.4373 26.2508H51.3061C50.7812 26.4984 50.1252 26.7461 49.6003 26.9937C49.4691 27.1175 49.2066 27.1175 49.0754 27.2414C48.5505 27.489 48.0257 27.7367 47.5008 27.8605C47.3696 27.8605 47.3696 27.9843 47.2384 27.9843C46.5823 28.232 46.0574 28.4796 45.5325 28.8511C45.4013 28.9749 45.2701 28.9749 45.0077 29.0987C44.4828 29.3464 44.0891 29.594 43.5643 29.8417C43.433 29.8417 43.3018 29.9655 43.1706 29.9655C42.6457 30.337 41.9896 30.5846 41.4648 30.9561C41.3336 31.0799 41.2023 31.0799 41.0711 31.2037C40.5462 31.4514 40.1526 31.8229 39.6277 32.0705C39.4965 32.1943 39.3653 32.1943 39.3653 32.3182C38.8404 32.6896 38.1843 33.0611 37.6595 33.4326L34.7727 30.0893C32.8044 27.8605 29.2615 27.6128 26.8996 29.4702C24.5377 31.3276 24.2752 34.6708 26.2435 36.8997L29.1303 40.2429L28.9991 40.3668C28.7366 40.6144 28.4742 40.8621 28.2118 41.1097C28.0806 41.2335 28.0806 41.3574 27.9493 41.3574C27.6869 41.605 27.4245 41.8526 27.162 42.2241C27.0308 42.3479 27.0308 42.4718 26.8996 42.4718C26.6372 42.7194 26.3747 42.9671 26.1123 43.3385C25.9811 43.4624 25.9811 43.5862 25.8499 43.5862C25.5874 43.8338 25.325 44.2053 25.0625 44.453C24.9313 44.5768 24.9313 44.7006 24.8001 44.8244C24.5377 45.0721 24.2752 45.4436 24.0128 45.6912C23.8816 45.815 23.8816 45.9389 23.7504 46.0627C23.4879 46.3103 23.2255 46.6818 22.9631 46.9295C22.8318 47.0533 22.8318 47.1771 22.7006 47.1771C22.4382 47.4248 22.1758 47.7962 21.9133 48.1677C21.7821 48.2915 21.7821 48.4153 21.6509 48.4153C21.3884 48.7868 21.126 49.0345 20.8636 49.4059C20.8636 49.5298 20.7324 49.5298 20.7324 49.6536C20.4699 50.0251 20.2075 50.3965 19.9451 50.768L19.8138 50.8918C19.5514 51.2633 19.289 51.7586 19.0265 52.1301C18.2392 53.4922 17.3207 54.7304 16.6646 56.0925C16.4022 56.5878 16.1397 56.9592 16.0085 57.4545C16.0085 57.5784 15.8773 57.5784 15.8773 57.7022C15.7461 58.0737 15.4836 58.4451 15.3524 58.8166C15.3524 58.9404 15.2212 59.0643 15.2212 59.1881C15.09 59.5596 14.9588 59.8072 14.6963 60.1787C14.5651 60.3025 14.5651 60.4263 14.4339 60.674C14.3027 61.0455 14.1715 61.2931 14.0402 61.6646C13.909 61.7884 13.909 62.036 13.7778 62.1599C13.6466 62.4075 13.5154 62.779 13.3842 63.0266C13.2529 63.1505 13.2529 63.3981 13.1217 63.5219C12.9905 63.7696 12.8593 64.1411 12.7281 64.3887C12.5969 64.6364 12.5969 64.7602 12.4656 65.0078C12.3344 65.2555 12.2032 65.627 12.2032 65.8746C12.072 66.1223 12.072 66.2461 11.9408 66.4937C11.8095 66.7414 11.8095 67.1129 11.6783 67.3605C11.6783 67.6082 11.5471 67.732 11.5471 67.9796C11.6783 68.7226 11.5471 68.9702 11.4159 69.3417C11.4159 69.5893 11.2847 69.7132 11.2847 69.9608C11.1535 70.2085 11.1535 70.5799 11.0222 70.8276C11.0222 71.0752 10.891 71.3229 10.891 71.4467C10.7598 71.6944 10.7598 72.0658 10.6286 72.3135C10.6286 72.5611 10.4974 72.8088 10.4974 72.9326C10.4974 73.1803 10.3661 73.5517 10.3661 73.7994C10.3661 74.047 10.2349 74.2947 10.2349 74.4185C10.2349 74.6661 10.1037 75.0376 10.1037 75.2853C10.1037 75.5329 9.9725 75.7806 9.9725 76.0282C9.9725 76.2759 9.84128 76.6473 9.84128 76.895C9.84128 77.1426 9.71006 77.3903 9.71006 77.6379C9.71006 77.8856 9.57884 78.2571 9.57884 78.5047C9.57884 78.7524 9.57884 79 9.44762 79.1238C9.44762 79.3715 9.44762 79.743 9.31641 79.9906C9.31641 80.2383 9.31641 80.4859 9.31641 80.6097C9.31641 80.9812 9.31641 81.2289 9.31641 81.6003C9.31641 81.848 9.31641 81.9718 9.31641 82.2194C9.31641 82.5909 9.31641 82.9624 9.31641 83.3339C9.31641 83.4577 9.31641 83.7053 9.31641 83.8292C9.31641 84.3245 9.31641 84.9436 9.31641 85.4389C9.31641 95.3448 11.6783 104.632 16.0085 112.928C16.5334 113.795 16.927 114.785 17.4519 115.652C21.126 121.967 25.8499 127.539 31.361 132.368C33.3293 134.102 35.4288 135.712 37.6595 137.198C38.578 137.817 39.4965 138.312 40.2838 138.931C45.795 142.274 51.6998 144.751 58.1294 146.484C59.1792 146.732 60.2289 146.98 61.4099 147.227C66.2649 148.342 71.3824 148.837 76.6311 148.837C81.8799 148.837 86.8661 148.218 91.8524 147.227C92.9022 146.98 93.9519 146.732 95.1329 146.484C101.563 144.751 107.467 142.15 112.978 138.931C113.897 138.436 114.816 137.817 115.603 137.198C117.834 135.712 119.933 134.102 121.901 132.368C127.412 127.539 132.136 121.967 135.81 115.652C136.335 114.785 136.86 113.795 137.254 112.928C141.453 104.632 143.946 95.3448 143.946 85.4389C143.683 85.0674 143.683 84.4483 143.683 83.953ZM76.4999 136.95C46.4511 136.95 22.0445 113.919 22.0445 85.5627C22.0445 57.2069 46.4511 34.1755 76.4999 34.1755C106.549 34.1755 130.955 57.2069 130.955 85.5627C130.955 113.919 106.549 136.95 76.4999 136.95Z" fill="url(#paint0_linear_45_11188)"/>
<path d="M71.2513 82.2194C69.8079 81.4765 68.3645 81.105 66.7899 81.105H47.6321L48.2882 77.5141H64.0343C65.3465 77.5141 65.6089 76.895 65.7401 76.3997L66.3962 73.0564C66.5274 72.6849 66.3962 72.3134 66.1338 72.1896C65.8713 71.942 65.4777 71.8181 64.9528 71.8181H48.813C46.976 71.8181 45.2701 72.1896 43.5643 73.0564C41.4648 74.047 40.2839 75.2852 40.0214 76.895L37.1346 92.373C37.1346 92.6207 37.0034 92.8683 37.0034 92.9921C37.0034 94.478 37.9219 95.7163 39.6278 96.5831C41.0712 97.326 42.5146 97.6975 44.0892 97.6975H63.7719C65.6089 97.6975 67.3147 97.326 69.0206 96.4592C71.12 95.4686 72.301 94.2304 72.5634 92.6207C72.8259 91.5063 73.0883 90.268 73.3507 89.1536C73.7444 87.42 73.8756 86.3056 73.8756 85.6865C73.8756 84.3244 72.9571 83.0862 71.2513 82.2194ZM65.084 86.9247L64.1655 92.0016H45.6638L46.5823 86.9247H65.084Z" fill="url(#paint1_linear_45_11188)"/>
<path d="M112.323 72.9325C110.879 72.1896 109.436 71.8181 107.861 71.8181H88.1785C86.3415 71.8181 84.6356 72.1896 82.9298 73.0564C80.8303 74.047 79.6493 75.2852 79.3869 76.8949L76.5001 92.373C76.5001 92.6206 76.3689 92.8683 76.3689 92.9921C76.3689 94.478 77.2874 95.7163 78.9933 96.583C80.4367 97.326 81.88 97.6975 83.4547 97.6975H103.137C104.974 97.6975 106.68 97.326 108.386 96.4592C110.486 95.4686 111.667 94.2304 111.929 92.6206L114.816 77.1426C114.816 76.8949 114.947 76.6473 114.947 76.5234C114.947 75.0376 114.16 73.7993 112.323 72.9325ZM106.287 77.6379L103.662 92.0015H85.0293L87.6536 77.6379H106.287Z" fill="url(#paint2_linear_45_11188)"/>
<path d="M81.4862 102.898C81.4862 102.774 81.4862 102.65 81.4862 102.65C81.355 102.527 81.2238 102.527 81.0925 102.527H70.7263C70.3327 102.527 70.2015 102.774 70.2015 102.898L69.6766 105.622C69.6766 105.746 69.6766 105.746 69.6766 105.87C69.6766 106.365 69.939 106.737 70.4639 106.984C70.8575 107.232 71.3824 107.356 71.9073 107.356H77.9433L77.6809 108.966H69.5454C69.1517 108.966 69.0205 109.213 69.0205 109.337L68.7581 110.451C68.7581 110.575 68.7581 110.699 68.7581 110.699C68.8893 110.823 69.0205 110.823 69.1517 110.823H79.5179C79.9116 110.823 80.0428 110.575 80.0428 110.451L80.6989 107.232C80.6989 107.108 80.6989 107.108 80.6989 106.984C80.6989 106.489 80.4364 106.118 79.9116 105.87C79.5179 105.622 78.993 105.498 78.4682 105.498H72.4322L72.6946 104.384H80.8301C81.2238 104.384 81.355 104.136 81.355 104.013L81.4862 102.898Z" fill="url(#paint3_linear_45_11188)"/>
<path d="M93.5584 102.527H83.1921C82.7985 102.527 82.6673 102.774 82.6673 102.898L81.2239 110.451C81.2239 110.575 81.2239 110.699 81.3551 110.699C81.4863 110.823 81.6175 110.823 81.7488 110.823H92.115C92.5086 110.823 92.6398 110.575 92.6398 110.451C92.9023 109.337 92.9023 109.337 92.9023 109.337C92.9023 109.213 92.9023 108.966 92.3774 108.966H84.2419L84.5043 107.356H92.6398C93.0335 107.356 93.1647 107.108 93.1647 106.984C93.4271 105.87 93.4271 105.87 93.4271 105.87C93.4271 105.746 93.4271 105.498 93.0335 105.498H84.898L85.1604 104.384H93.2959C93.6896 104.384 93.8208 104.136 93.8208 104.013C94.0832 102.898 94.0832 102.898 94.0832 102.898C94.0832 102.774 94.0832 102.527 93.5584 102.527Z" fill="url(#paint4_linear_45_11188)"/>
<path d="M106.155 102.527H97.8886C97.3637 102.527 96.7076 102.65 96.1827 102.898C95.5266 103.27 95.133 103.641 95.0018 104.136L94.0833 109.089C94.0833 109.213 94.0833 109.213 94.0833 109.337C94.0833 109.832 94.3457 110.204 94.8706 110.451C95.2642 110.699 95.7891 110.823 96.314 110.823H104.581C104.974 110.823 105.106 110.575 105.106 110.451L105.368 109.337C105.368 109.213 105.368 109.089 105.368 109.089C105.237 108.966 105.106 108.966 104.974 108.966H96.8388L97.7573 104.384H105.893C106.287 104.384 106.418 104.136 106.418 104.013L106.68 102.898C106.68 102.774 106.68 102.65 106.68 102.65C106.418 102.527 106.287 102.527 106.155 102.527Z" fill="url(#paint5_linear_45_11188)"/>
<defs>
<linearGradient id="paint0_linear_45_11188" x1="27.7892" y1="22.0749" x2="119.727" y2="143.051" gradientUnits="userSpaceOnUse">
<stop offset="8e-08" stop-color="#5B4193"/>
<stop offset="1" stop-color="#B94593"/>
</linearGradient>
<linearGradient id="paint1_linear_45_11188" x1="12.857" y1="46.9018" x2="109.209" y2="149.007" gradientUnits="userSpaceOnUse">
<stop offset="8e-08" stop-color="#5B4193"/>
<stop offset="1" stop-color="#B94593"/>
</linearGradient>
<linearGradient id="paint2_linear_45_11188" x1="34.1629" y1="26.7966" x2="130.515" y2="128.902" gradientUnits="userSpaceOnUse">
<stop offset="8e-08" stop-color="#5B4193"/>
<stop offset="1" stop-color="#B94593"/>
</linearGradient>
<linearGradient id="paint3_linear_45_11188" x1="12.3707" y1="47.3612" x2="108.723" y2="149.466" gradientUnits="userSpaceOnUse">
<stop offset="8e-08" stop-color="#5B4193"/>
<stop offset="1" stop-color="#B94593"/>
</linearGradient>
<linearGradient id="paint4_linear_45_11188" x1="18.6324" y1="41.4521" x2="114.985" y2="143.558" gradientUnits="userSpaceOnUse">
<stop offset="8e-08" stop-color="#5B4193"/>
<stop offset="1" stop-color="#B94593"/>
</linearGradient>
<linearGradient id="paint5_linear_45_11188" x1="25.1694" y1="35.2836" x2="121.522" y2="137.389" gradientUnits="userSpaceOnUse">
<stop offset="8e-08" stop-color="#5B4193"/>
<stop offset="1" stop-color="#B94593"/>
</linearGradient>
</defs>
</svg>
